<?xml version="1.0" encoding="UTF-8"?>
<svg width="66px" height="42px" viewBox="0 0 262 166" version="1.1" xmlns="http://www.w3.org/2000/svg" xmlns:xlink="http://www.w3.org/1999/xlink">
    <title>Logo/White</title>
    <g id="Press-section" stroke="none" stroke-width="1" fill="none" fill-rule="evenodd">
        <g id="06-Press" transform="translate(-206.000000, -3011.000000)" fill="#009EDC" fill-rule="nonzero">
            <g id="Logo/White" transform="translate(206.000000, 3011.000000)">
                <path d="M249.112059,0.053672027 L248.480813,0.053672027 C247.060509,0.107344054 245.640206,0.429376216 244.32511,0.966096487 C243.062618,1.44914473 241.957937,2.14688108 240.958464,3.05930554 C239.958991,3.91805797 239.064726,4.93782649 238.380876,6.06493906 C237.644422,7.19205162 237.118384,8.48018027 236.802761,9.76830892 C236.644949,10.3050292 236.539741,10.8417495 236.487138,11.4321418 C236.434534,12.0225341 236.38193,12.5592543 236.38193,13.1496466 C236.38193,14.8134795 236.697553,16.5309843 237.328799,18.0338011 C237.802234,19.3219297 238.486084,20.4490423 239.380349,21.4688108 C240.22201,22.4885793 241.221483,23.4010038 242.326164,24.0987401 C243.430845,24.8501485 244.693337,25.3868688 245.955829,25.708901 C246.481867,25.869917 247.007906,25.9772611 247.586548,26.0309331 C248.16519,26.0846051 248.691229,26.1382772 249.269871,26.1382772 C250.90059,26.1382772 252.583913,25.816245 254.05682,25.1721807 C255.319312,24.6891324 256.423993,23.9913961 257.423466,23.0789716 C258.422939,22.2202192 259.317204,21.2004507 260.001054,20.0733381 C260.737508,18.9462255 261.263546,17.6580969 261.579169,16.3699682 C261.736981,15.833248 261.842188,15.2965277 261.894792,14.7061354 C261.947396,14.1157431 262,13.5790228 262,12.9886305 C262,11.3247977 261.684377,9.60729284 261.053131,8.10447608 C260.579696,6.81634743 259.895846,5.68923487 259.001581,4.66946635 C258.15992,3.64969784 257.160447,2.73727338 256.055766,2.03953703 C254.951085,1.28812865 253.688593,0.751408379 252.426101,0.429376216 C251.900063,0.268360135 251.374024,0.161016081 250.795382,0.107344054 C250.427155,0.053672027 250.111532,0 249.743305,0 C249.53289,0.053672027 249.322475,0.053672027 249.112059,0.053672027 L249.112059,0.053672027 Z M260.684904,55.3358599 L260.684904,35.691898 L260.264073,35.691898 C259.317204,35.691898 258.422939,35.691898 257.47607,35.74557 C256.634408,35.799242 255.845351,35.8529141 255.003689,35.9065861 C254.267236,35.9602581 253.478178,36.0676022 252.741724,36.1749462 C252.057874,36.2822903 251.321421,36.3896343 250.637571,36.5506504 L249.848513,36.7116665 C249.585494,36.7653385 249.322475,36.8190106 249.059455,36.9263546 C247.270925,37.4094028 245.534998,38.1071392 244.062091,39.1269077 C243.010014,39.770972 242.063145,40.6297245 241.274087,41.595821 C240.432426,42.5619174 239.80118,43.68903 239.275141,44.8698146 C238.643895,46.3189593 238.223064,47.9291201 237.960045,49.4856089 C237.802234,50.3980334 237.697026,51.3104579 237.644422,52.2228823 C237.591818,52.9206187 237.539214,53.618355 237.539214,54.3160914 L237.539214,120.923077 L239.012122,120.923077 C239.906387,120.923077 240.853256,120.869405 241.747522,120.815733 C243.746468,120.708389 245.745413,120.493701 247.744359,120.010652 C249.480286,119.634948 251.216213,119.098228 252.794328,118.239476 C254.004216,117.595411 255.161501,116.844003 256.160974,115.824234 C257.160447,114.858138 257.949504,113.731025 258.58075,112.496569 C259.2646,111.154768 259.738035,109.705623 260.053658,108.202807 C260.264073,107.23671 260.421885,106.270614 260.527092,105.304517 C260.6323,104.338421 260.684904,103.425996 260.737508,102.4599 L260.737508,55.4432039 L260.684904,55.3358599 L260.684904,55.3358599 Z M180.727067,28.6071904 C179.990614,28.6071904 179.25416,28.6071904 178.517706,28.6608624 C173.520341,28.8755505 168.470373,29.9489911 163.788631,31.9348561 C159.422512,33.652361 155.372017,36.1749462 151.847559,39.2342518 C148.270498,42.2398853 145.166872,45.8359111 142.641887,49.8076411 C140.064299,53.8330431 138.117957,58.2878214 136.960673,62.9036157 C136.487238,64.7821366 136.119011,66.7143296 135.855992,68.7001946 C135.69818,69.9346512 135.592973,71.1691079 135.540369,72.4572365 C135.487765,73.2086449 135.487765,73.9600533 135.487765,74.7651337 L135.487765,120.923077 L136.960673,120.923077 C139.906488,120.869405 142.852303,120.708389 145.69291,120.010652 C147.428837,119.634948 149.164763,119.098228 150.742879,118.239476 C151.952767,117.595411 153.110051,116.844003 154.109524,115.824234 C155.108997,114.858138 155.898055,113.731025 156.529301,112.496569 C157.213151,111.154768 157.686586,109.705623 158.002209,108.202807 C158.212624,107.23671 158.370435,106.270614 158.475643,105.250845 C158.580851,104.284749 158.633455,103.372324 158.686058,102.406228 L158.686058,74.7114616 C158.686058,74.3357575 158.686058,73.9600533 158.738662,73.5843491 C158.84387,71.0617638 159.369908,68.5928506 160.316778,66.2312814 C161.158439,64.0844003 162.315723,62.0448633 163.788631,60.2736864 C165.208935,58.5025095 166.944861,56.9460207 168.8386,55.7115641 C170.784942,54.4234354 172.889095,53.4573389 175.098457,52.8669466 C175.992722,52.5985865 176.939591,52.4375704 177.88646,52.3302264 C178.833329,52.2228823 179.780198,52.1155383 180.779671,52.1692103 C183.620279,52.1692103 186.460886,52.7059306 189.038474,53.7793711 C191.142628,54.6381235 193.141574,55.8189081 194.8775,57.3217249 C196.613427,58.7708696 198.138938,60.5420465 199.348827,62.4742395 C200.3483,64.0307283 201.137357,65.7482331 201.715999,67.51941 C202.347246,69.451603 202.768076,71.49114 202.82068,73.530677 C202.82068,73.9063812 202.82068,74.2820854 202.873284,74.6577896 L202.873284,102.352556 C202.925888,104.767797 203.136303,107.183038 203.872757,109.490935 C204.240984,110.886408 204.819626,112.281881 205.608684,113.462665 C206.345137,114.589778 207.239403,115.663218 208.291479,116.521971 C209.39616,117.434395 210.606048,118.132132 211.921144,118.668852 C213.867487,119.527604 215.97164,120.010652 218.075794,120.279013 C219.180474,120.440029 220.285155,120.547373 221.389836,120.654717 C222.441912,120.708389 223.493989,120.762061 224.59867,120.815733 L226.071577,120.815733 L226.071577,74.6577896 C226.071577,73.9063812 226.071577,73.1549729 226.018974,72.4035645 C225.808558,67.2510499 224.756481,62.1522073 222.810139,57.3753969 C221.126816,52.9206187 218.654436,48.7878726 215.656017,45.1918468 C212.710202,41.5421489 209.185745,38.3754993 205.293061,35.8529141 C201.347773,33.2229847 196.981654,31.2371197 192.457724,30.0563351 C190.616589,29.5196149 188.722851,29.1975827 186.776509,28.9292226 C185.566621,28.7682065 184.356732,28.6608624 183.09424,28.6071904 C182.199975,28.6608624 181.463521,28.6071904 180.727067,28.6071904 L180.727067,28.6071904 Z M100.769231,35.691898 L100.769231,102.4599 C100.821835,104.875141 101.03225,107.290382 101.768704,109.598279 C102.136931,110.993752 102.715573,112.389225 103.50463,113.570009 C104.241084,114.697122 105.135349,115.770562 106.187426,116.629315 C107.292107,117.541739 108.501995,118.239476 109.817091,118.776196 C111.763433,119.634948 113.867587,120.117997 115.97174,120.386357 C117.076421,120.547373 118.181102,120.654717 119.285782,120.762061 C120.337859,120.815733 121.389936,120.869405 122.494617,120.923077 L123.967524,120.923077 L123.967524,118.937212 L123.967524,115.019154 L123.967524,105.197173 L123.967524,92.1011984 L123.967524,79.0052238 L123.967524,65.9092492 L123.967524,60.6493906 L123.967524,55.3895319 C123.91492,52.5449145 123.809713,49.646625 122.968051,46.9630237 C122.599824,45.567551 122.021182,44.1720783 121.232124,42.9912937 C120.495671,41.8641811 119.601405,40.7907406 118.549329,39.9319881 C117.444648,39.0195637 116.23476,38.3218273 114.919664,37.785107 C112.973322,36.9263546 110.869168,36.4433064 108.765014,36.1749462 C107.660334,36.0139301 106.555653,35.9065861 105.450973,35.799242 C104.398896,35.74557 103.346819,35.691898 102.242138,35.638226 C101.7161,35.691898 101.242665,35.691898 100.769231,35.691898 Z" id="Shape"></path>
                <path d="M23.2072043,73.6122259 L23.2072043,72.5143163 C23.3115064,70.05709 23.8330166,67.6521451 24.7717349,65.3517631 C25.6061513,63.2605067 26.7534737,61.2738131 28.2137023,59.5485265 C29.6217799,57.82324 31.3427636,56.3070791 33.2202003,55.1046066 C35.1497881,53.8498528 37.2358289,52.9087874 39.4261718,52.3859733 C40.3127392,52.1245662 41.2514576,51.967722 42.1901759,51.8631592 C43.1288943,51.7585964 44.0676127,51.6540335 45.0584821,51.6540335 C47.300976,51.6540335 49.5434699,51.967722 51.6816617,52.6996617 C53.4026454,53.2224758 55.0714781,54.006697 56.5838577,55.0000438 C58.0962373,55.9411092 59.5043149,57.0913002 60.7559394,58.3460541 C62.0075639,59.6008079 63.1027353,61.0646874 63.9893027,62.6331297 C64.3543598,63.2605067 64.667266,63.8878836 64.9801721,64.5675419 C65.2930782,65.2472003 65.6059843,65.8745772 65.7624374,66.6065169 C65.9188905,67.0770496 65.9710415,67.5475823 66.0753435,68.018115 C66.1274945,68.4363663 66.2317966,68.8546176 66.2839476,69.2205874 L66.4404007,70.4753413 C66.4925517,70.8935926 66.4925517,71.3641253 66.5447027,71.7823766 L66.5447027,72.8280048 C66.5447027,73.1939746 66.5447027,73.5599445 66.4925517,73.9259144 C66.4404007,74.6578541 66.3882496,75.3375125 66.2839476,76.0694522 C66.0231925,77.7947388 65.6059843,79.4677439 64.9280211,81.0884676 C64.0936047,83.179724 62.9462823,85.1664176 61.4860537,86.8917042 C60.0779761,88.6169907 58.3569924,90.1331516 56.4795557,91.3356241 C54.6021189,92.5903779 52.4639271,93.5314433 50.2735842,94.0542574 C49.3870168,94.3156645 48.4482984,94.4725087 47.5617311,94.5770715 C46.9880699,94.6293529 46.3622576,94.7339158 45.7885964,94.7339158 C45.4235392,94.7339158 45.0584821,94.7339158 44.6934249,94.7861972 L43.9111596,94.7861972 C43.3896494,94.7861972 42.8681392,94.7339158 42.346629,94.6816343 C41.0428535,94.5247901 39.791229,94.3156645 38.5396045,93.9496946 C36.9229228,93.4791619 35.3583922,92.7995036 33.8981636,91.963001 C32.437935,91.1264984 31.1341595,90.1331516 29.882535,89.035242 C28.6309105,87.9373324 27.5357391,86.6302971 26.6491717,85.2709805 C26.2841145,84.6958849 25.9190574,84.1730708 25.6061513,83.5456939 C25.2932452,82.9705984 24.980339,82.3432215 24.7195839,81.768126 C24.4588288,81.1930304 24.2502247,80.5656535 24.0937717,79.9382766 C23.9373186,79.4154625 23.7808655,78.8926484 23.6765635,78.3698343 C23.5722615,77.8470202 23.4679594,77.2719247 23.3636574,76.7491106 C23.2593553,76.174015 23.2072043,75.6512009 23.2072043,75.0761054 C23.2072043,74.8669798 23.2072043,74.6055727 23.1550533,74.3964471 L23.1550533,73.9781958 C23.2072043,73.7690702 23.2072043,73.7167887 23.2072043,73.6122259 M112.38545,0.261407052 C111.86394,0.261407052 111.394581,0.261407052 110.873071,0.313688463 C107.431103,0.522814105 104.093438,1.46387949 100.912226,2.82319616 C97.157352,4.33935707 93.6632336,6.43061349 90.3777193,8.78327696 C86.9357519,11.1882218 83.7023886,13.9591366 80.6776294,16.939177 C77.7571722,19.8146546 75.0974701,22.8469764 72.7506742,26.1929866 C71.8641068,27.3954591 71.0296905,28.6502129 70.2474252,29.9049668 C69.6216129,30.950595 68.9958007,31.9962232 68.4742905,33.0941328 C68.2656864,33.5123841 68.0570823,33.9829168 67.8484782,34.4534495 C67.6398741,34.3488867 67.4312701,34.1920424 67.222666,34.0874796 C66.8054578,33.8260726 66.3882496,33.6169469 65.9710415,33.4078213 C64.9280211,32.8327258 63.8850006,32.3099117 62.7898292,31.839379 C61.3296006,31.212002 59.817221,30.6369065 58.3048414,30.1663738 C56.7924618,29.6958411 55.2279312,29.2775899 53.6112495,28.9639014 C51.9945679,28.6502129 50.3778862,28.3888059 48.7612046,28.2842431 C48.0832413,28.2319616 47.457429,28.1796802 46.7794658,28.1273988 C46.3622576,28.1273988 45.9450494,28.0751174 45.5278413,28.0751174 L44.745576,28.0751174 C44.0154617,28.0751174 43.2853474,28.0751174 42.5552331,28.1273988 C41.0950045,28.1796802 39.6347759,28.3365245 38.2266983,28.5456501 C34.7325799,29.0684642 31.2906126,29.9572482 28.0050982,31.3165649 C23.7287145,32.98957 19.7130859,35.3945149 16.1668165,38.4268367 C12.6205471,41.3545957 9.54363683,44.8051688 7.09253885,48.7262745 C4.53713882,52.5428175 2.60755105,56.8821746 1.46022859,61.3783759 C0.938718377,63.2082252 0.625812251,65.090356 0.365057147,66.9724868 C0.104302042,68.906899 0,70.8413112 0,72.8280048 C0,74.0304772 0.0521510209,75.1806682 0.156453063,76.3831407 C0.208604084,77.3764875 0.312906126,78.3175529 0.469359188,79.2586183 C0.625812251,80.1996836 0.782265314,81.140749 0.990869398,82.0818144 C1.19947348,83.0228798 1.40807757,83.9116638 1.66883267,84.8527292 L1.9817388,85.9506388 C2.08604084,86.3166087 2.19034288,86.6825785 2.34679594,87.0485484 C2.76400411,88.3033023 3.18121228,89.6103375 3.70272249,90.81281 C4.11993065,91.8584382 4.58928984,92.851785 5.11080005,93.8451318 C5.63231026,94.8384786 6.15382047,95.779544 6.7274817,96.7206093 C7.30114293,97.6616747 7.87480416,98.6027401 8.55276743,99.4915241 C8.81352254,99.857494 9.07427764,100.223464 9.33503275,100.537152 C9.49148581,100.746278 9.64793887,100.955404 9.85654296,101.216811 C9.960845,101.321373 10.065147,101.478218 10.1694491,101.582781 C9.960845,101.739625 9.80439194,101.896469 9.64793887,102.053313 C9.28288173,102.367002 8.91782458,102.732972 8.60491845,103.04666 C7.77050212,103.883163 6.93608578,104.824228 6.20597149,105.765293 C5.21510209,107.020047 4.32853474,108.431645 3.54626942,109.843243 C2.76400411,111.307123 2.13819186,112.823284 1.61668165,114.339445 C1.09517144,115.907887 0.677963272,117.580892 0.469359188,119.201616 C0.365057147,119.881274 0.312906126,120.560933 0.260755105,121.240591 C0.208604084,121.920249 0.208604084,122.599908 0.208604084,123.331847 C0.208604084,124.011506 0.208604084,124.691164 0.260755105,125.423104 C0.312906126,125.998199 0.365057147,126.573295 0.417208167,127.096109 C0.469359188,127.671204 0.57366123,128.194018 0.677963272,128.769114 C0.782265314,129.291928 0.886567356,129.867024 1.04302042,130.389838 L1.19947348,131.017215 C1.2516245,131.22634 1.30377552,131.435466 1.40807757,131.644592 C2.08604084,133.944974 2.97260819,136.245356 4.17208167,138.388893 C5.11080005,140.166461 6.31027353,141.787185 7.61404906,143.251065 C8.91782458,144.767226 10.3780532,146.126542 11.9947348,147.276733 C13.6114165,148.479206 15.3324002,149.524834 17.1576859,150.361336 C17.8878002,150.727306 18.6179145,150.988713 19.4001798,151.302402 C19.869539,151.459246 20.3388982,151.61609 20.8604084,151.772935 C21.1733145,151.877497 21.4340696,151.929779 21.7469757,152.034342 L21.8512778,152.086623 L22.1641839,152.191186 L22.320637,152.243467 L22.424939,152.295749 L22.529241,152.34803 L22.8421472,152.400311 L23.1550533,152.400311 L23.3636574,152.452593 L24.1980737,152.452593 L24.5631309,152.504874 L24.7717349,152.504874 L25.1367921,152.557156 L25.2410941,152.557156 L25.5018492,152.609437 L25.6061513,152.609437 L25.9712084,152.661719 L26.1798125,152.661719 L26.7534737,152.714 L26.8577758,152.714 L27.431437,152.766281 L68.8914987,152.766281 C70.7689354,152.818563 72.5942211,153.027688 74.4195069,153.550503 C75.7232824,153.916472 76.9749069,154.387005 78.1222294,155.118945 C79.0609477,155.69404 79.8953641,156.373699 80.6254784,157.15792 C81.3555927,157.942141 81.9292539,158.830925 82.3986131,159.824272 C82.8679723,160.817619 83.2330294,161.915528 83.3894825,163.013438 C83.4416335,163.327126 83.4937845,163.588533 83.4937845,163.902222 C83.5459355,164.111347 83.5459355,164.372754 83.5459355,164.58188 C83.5459355,164.791006 83.5980866,165.052413 83.5980866,165.261538 C84.1195968,164.843287 84.693258,164.477317 85.2147682,164.059066 C86.2056376,163.274845 87.092205,162.386061 87.9787723,161.497277 C89.3868499,159.981116 90.6384744,158.308111 91.5771928,156.478262 C92.6723642,154.439286 93.4546295,152.138904 93.7153846,149.838522 C94.0282907,147.694985 93.9239887,145.499165 93.4024785,143.407909 C92.9331193,141.368934 92.098703,139.434522 90.9513805,137.709235 C89.8562091,135.983949 88.3959805,134.415506 86.7271478,133.213034 C85.0061641,131.905999 83.0765763,130.964933 81.0426865,130.442119 C80.4168743,130.285275 79.843213,130.128431 79.2174008,130.023868 C78.7480416,129.971586 78.2786824,129.867024 77.7571722,129.867024 C77.287813,129.814742 76.7663028,129.814742 76.2969436,129.814742 L28.6830615,129.814742 C28.0572493,129.762461 27.431437,129.657898 26.8056248,129.396491 C26.2319635,129.187365 25.7626043,128.873677 25.2932452,128.507707 C24.823886,128.141737 24.4588288,127.671204 24.1459227,127.200672 C23.8330166,126.677858 23.5722615,126.155043 23.4158084,125.579948 C23.3636574,125.318541 23.3115064,125.109415 23.2593553,124.848008 C23.2593553,124.691164 23.2072043,124.53432 23.2072043,124.377475 L23.2072043,124.116068 L23.2072043,123.854661 C23.2072043,123.645536 23.2072043,123.488692 23.2593553,123.331847 C23.3115064,122.913596 23.4158084,122.443063 23.6244125,122.024812 C23.8330166,121.501998 24.1459227,120.979184 24.5109798,120.508651 C24.876037,120.038118 25.2932452,119.672149 25.8147554,119.35846 C26.2841145,119.044772 26.8577758,118.783365 27.379286,118.62652 C27.5878901,118.574239 27.8486452,118.521958 28.0572493,118.469676 C28.2137023,118.469676 28.3701554,118.417395 28.5266084,118.417395 L45.1106331,118.417395 C45.8407474,118.417395 46.5708617,118.417395 47.300976,118.365113 C48.7612046,118.312832 50.2214332,118.155988 51.6295107,117.946862 C55.1236291,117.424048 58.5655965,116.535264 61.9032618,115.175947 C66.2317966,113.502942 70.2474252,111.045716 73.7415436,108.065675 C77.287813,105.137916 80.3647233,101.635062 82.8158212,97.7662376 C85.3712213,93.8451318 87.300809,89.5057747 88.4481315,85.0095734 C88.9696417,83.179724 89.2825478,81.2975933 89.5433029,79.3631811 C89.804058,77.4287689 89.9083601,75.4420753 89.9083601,73.5076631 C89.9083601,72.1483464 89.8562091,70.8413112 89.699756,69.4819945 C89.595454,68.3840849 89.4390009,67.2861753 89.2303968,66.1882656 C89.0217927,65.090356 88.8131886,64.0447278 88.5002825,62.9468182 C88.2395274,61.90119 87.9266213,60.8032804 87.5615641,59.7576522 C87.4051111,59.3394009 87.300809,58.9211496 87.144356,58.5028983 L86.6749968,57.2481445 C86.1013356,55.784265 85.4755233,54.2681041 84.79756,52.856506 C84.2238988,51.6540335 83.5980866,50.5038425 82.8679723,49.3536515 C82.190009,48.2034604 81.4598947,47.1055508 80.6776294,46.0599226 C79.8953641,45.0142944 79.0609477,43.9686662 78.2265314,42.9753194 C77.8614743,42.5570681 77.5485681,42.1910982 77.183511,41.8251284 C76.9749069,41.5637213 76.7141518,41.3545957 76.5055477,41.0931886 L76.0883395,40.6749373 C76.2969436,40.4135303 76.5055477,40.2044046 76.7141518,39.9429976 C77.13136,39.4201835 77.6007191,38.9496508 78.0179273,38.4791181 C79.2174008,37.1720828 80.4690253,35.917329 81.7206498,34.7148565 C83.4937845,33.0418514 85.4233723,31.4211277 87.4051111,29.9572482 C89.3346989,28.4933687 91.3685887,27.1863334 93.5067805,26.0361424 C95.4885193,24.9382328 97.5745602,24.0494488 99.712752,23.4743533 C100.495017,23.2652277 101.329434,23.056102 102.16385,22.9515392 C102.633209,22.8992578 103.154719,22.794695 103.67623,22.794695 C103.989136,22.794695 104.249891,22.794695 104.562797,22.7424135 C104.562797,22.7424135 104.614948,22.7424135 104.614948,22.794695 C104.667099,22.794695 104.667099,22.8469764 104.71925,22.8469764 C104.771401,22.8992578 104.875703,22.9515392 104.927854,23.0038206 C105.032156,23.056102 105.136458,23.1606648 105.24076,23.2129462 C105.345062,23.2652277 105.449364,23.3697905 105.553666,23.4220719 C105.657968,23.4743533 105.76227,23.5789161 105.866572,23.6311975 C105.918724,23.6311975 105.970875,23.6834789 105.970875,23.6834789 C106.023026,23.6834789 106.075177,23.7357603 106.127328,23.7357603 C106.179479,23.7357603 106.179479,23.7880418 106.23163,23.7880418 C106.23163,23.7880418 106.283781,23.7880418 106.283781,23.8403232 C106.283781,23.8403232 106.335932,23.8403232 106.335932,23.8926046 C106.388083,23.8926046 106.440234,23.944886 106.440234,23.944886 C106.544536,23.9971674 106.648838,24.0494488 106.805291,24.1017302 L107.118197,24.2585745 L107.431103,24.4154187 C107.535405,24.4677001 107.639707,24.5199815 107.744009,24.5199815 C107.79616,24.5199815 107.848311,24.5722629 107.848311,24.5722629 C107.900462,24.5722629 107.952613,24.6245443 107.952613,24.6245443 C108.004764,24.6768257 108.109066,24.6768257 108.161217,24.6768257 C108.213368,24.6768257 108.265519,24.7291071 108.369821,24.7291071 C108.474124,24.7291071 108.474124,24.7813886 108.578426,24.7813886 C108.630577,24.7813886 108.682728,24.83367 108.78703,24.83367 L108.891332,24.83367 C108.995634,24.8859514 109.099936,24.8859514 109.152087,24.9382328 C109.204238,24.9382328 109.30854,24.9905142 109.360691,24.9905142 C109.412842,24.9905142 109.517144,25.0427956 109.569295,25.0427956 C109.621446,25.0427956 109.725748,25.095077 109.777899,25.095077 L109.986503,25.095077 C110.195107,25.1473584 110.35156,25.1473584 110.508013,25.1996398 C110.664466,25.1996398 110.820919,25.2519213 110.977373,25.2519213 C111.133826,25.2519213 111.290279,25.3042027 111.446732,25.3042027 C111.603185,25.3042027 111.759638,25.3042027 111.916091,25.3564841 L112.90696,25.3564841 C113.324168,25.3564841 113.741377,25.3042027 114.158585,25.2519213 C115.149454,25.095077 116.140324,24.83367 117.079042,24.4677001 C118.278515,23.9971674 119.425838,23.3175091 120.416707,22.4810065 C121.407577,21.6445039 122.294144,20.6511571 122.972107,19.5532475 C123.702222,18.4553379 124.223732,17.200584 124.536638,15.9458302 C124.693091,15.4230161 124.797393,14.900202 124.849544,14.3251065 C124.901695,13.8022924 124.953846,13.2271968 124.953846,12.6521013 C124.953846,11.0313776 124.64094,9.41065388 124.015128,7.89449298 C123.545769,6.69202054 122.867805,5.54182951 122.033389,4.54848271 C121.198973,3.55513591 120.208103,2.66635193 119.112932,1.9866936 C118.01776,1.25475385 116.766136,0.731939746 115.514511,0.418251284 C114.993001,0.261407052 114.471491,0.156844231 113.949981,0.104562821 C113.584924,0.0522814105 113.272017,0.0522814105 112.90696,0 C112.802658,0.261407052 112.594054,0.261407052 112.38545,0.261407052 L112.38545,0.261407052 Z" id="Shape"></path>
            </g>
        </g>
    </g>
</svg>